<svg width="380" height="255" viewBox="0 0 380 255" fill="none" xmlns="http://www.w3.org/2000/svg">
<path fill-rule="evenodd" clip-rule="evenodd" d="M379.482 254.281H0.992188V147.191H379.482V254.281ZM111.067 222.128H104.969V200.794C104.969 189.658 97.1891 184.559 88.6731 184.559C81.2084 184.559 75.8465 188.409 73.2181 194.654C70.9051 187.785 64.5969 184.559 57.7631 184.559C51.1395 184.559 46.1981 187.577 43.3595 192.572V185.495H23.4887V195.694H29.7969V222.234H23.4887V232.432H52.296V222.234H43.2543V205.893C43.2543 199.337 45.8827 194.758 52.4011 194.758C57.7631 194.758 60.4966 197.88 60.4966 205.997V232.432H80.3673V222.234H74.0592V205.893C74.0592 199.337 76.6876 194.758 83.206 194.758C88.5679 194.758 91.3015 197.88 91.3015 205.997V232.327H111.067V222.128ZM142.403 184.559C125.371 184.559 116.961 195.902 116.961 209.64C116.961 224.626 127.054 233.472 141.667 233.472C156.807 233.472 167.741 224.002 167.741 209.015C167.741 195.902 159.435 184.559 142.403 184.559ZM130.943 208.696C130.943 216.813 134.728 223.057 142.088 223.057C149.132 223.057 153.758 217.542 153.758 208.487C153.758 199.017 148.606 194.75 142.193 194.75C135.254 194.75 130.943 199.849 130.943 208.696ZM210.213 214.948L220.937 215.988L217.993 232.431H176.675L175.308 225.355L201.381 195.693H186.558L184.455 202.979L174.677 201.939L176.359 185.494H217.888L218.94 192.571L192.656 222.233H208.005L210.213 214.948ZM245.122 232.435H230.929V215.575H245.122V232.435ZM230.929 202.354H245.122V185.494H230.929V202.354ZM267.198 232.325L287.699 160.828H274.347L253.845 232.325H267.198ZM315.247 160.828L294.745 232.325H281.393L301.895 160.828H315.247ZM360.458 224.418C361.088 224.418 361.718 224.315 362.455 224.106L362.77 231.287C360.247 232.641 357.198 233.472 354.255 233.472C347.946 233.472 344.477 229.83 343.845 224.106C341.113 228.893 336.276 233.472 328.6 233.472C321.767 233.472 313.988 229.83 313.988 220.047C313.988 208.495 325.237 205.789 336.066 205.789C338.695 205.789 341.428 205.893 343.845 206.205V204.644C343.845 199.857 343.741 194.133 336.066 194.133C333.227 194.133 331.02 194.341 328.812 195.486L327.235 200.794L316.406 199.649L318.087 188.826C326.394 185.495 330.599 184.559 338.379 184.559C348.576 184.559 357.198 189.762 357.198 200.482V220.775C357.198 223.481 358.25 224.418 360.458 224.418Z" fill="white" stroke="white"/>
<path fill-rule="evenodd" clip-rule="evenodd" d="M333.437 223.797C329.337 223.797 327.865 221.402 327.865 218.384C327.865 213.285 332.071 211.932 336.907 211.932C339.114 211.932 341.533 212.244 343.741 212.556C343.425 220.361 338.274 223.797 333.437 223.797Z" fill="white" stroke="white"/>
<path d="M83.0119 116.207H47.0588V102.201H55.7221V79.5317C55.7221 73.9486 54.7114 69.9538 52.6899 67.5473C50.7647 65.1408 47.9732 63.9375 44.3153 63.9375C40.0799 63.9375 36.7588 65.237 34.3523 67.8361C32.042 70.4351 30.7908 73.8523 30.5982 78.0878V102.201H39.2617V116.207H3.30835V102.201H11.9717V31.0164H3.30835V16.8662H30.5982V61.0497C34.93 53.5414 41.9088 49.7872 51.5349 49.7872C57.6955 49.7872 63.0379 51.6162 67.5621 55.2741C72.0864 58.932 74.3486 64.6113 74.3486 72.3122V102.201H83.0119V116.207ZM167.344 116.207H139.332V106.244C135 113.752 128.022 117.507 118.396 117.507C112.235 117.507 106.892 115.678 102.368 112.02C97.8439 108.362 95.5818 102.682 95.5818 94.9815V65.0926H86.9185V51.0867H114.208V87.762C114.208 93.4413 115.123 97.4843 116.952 99.8908C118.877 102.201 121.668 103.356 125.326 103.356C129.754 103.356 133.172 101.912 135.578 99.0244C138.081 96.1366 139.332 92.4306 139.332 87.9064V65.0926H128.792V51.0867H157.959V102.201H167.344V116.207ZM245.887 82.1307C245.887 91.7568 243.336 100.083 238.234 107.11C233.229 114.137 225.817 117.651 215.998 117.651C206.083 117.651 199.104 113.897 195.061 106.388C194.869 108.025 194.628 109.661 194.339 111.298C194.147 112.934 193.906 114.571 193.617 116.207H174.991C175.665 112.838 176.242 109.469 176.724 106.1C177.205 102.731 177.446 99.4095 177.446 96.1366V31.0164H168.782V16.8662H196.072V63.5043C197.805 59.7502 200.404 56.5255 203.869 53.8302C207.431 51.1349 212.148 49.7872 218.019 49.7872C226.202 49.7872 232.892 52.6269 238.09 58.3063C243.288 63.9856 245.887 71.9271 245.887 82.1307ZM226.539 83.719C226.539 77.4621 225.191 72.6972 222.496 69.4244C219.8 66.1515 216.239 64.5151 211.811 64.5151C206.805 64.5151 202.907 66.344 200.115 70.0019C197.42 73.6598 196.072 77.8953 196.072 82.7083V84.2966C196.072 89.5909 197.372 94.067 199.971 97.7249C202.666 101.287 206.468 103.067 211.377 103.067C215.613 103.067 219.175 101.527 222.062 98.4469C225.046 95.2703 226.539 90.361 226.539 83.719ZM311.697 96.281C311.697 103.501 308.81 108.891 303.034 112.453C297.355 115.918 289.943 117.651 280.798 117.651C276.081 117.651 271.316 117.17 266.503 116.207C261.786 115.148 257.262 113.512 252.93 111.298L255.529 93.1044L269.969 94.6927V102.779C271.701 103.356 273.53 103.741 275.455 103.934C277.381 104.03 278.824 104.078 279.787 104.078C283.349 104.078 286.429 103.501 289.028 102.346C291.627 101.19 292.927 99.4576 292.927 97.1474C292.927 94.3558 290.953 92.5269 287.007 91.6605C283.06 90.7942 278.488 89.9278 273.289 89.0615C268.091 88.1951 263.519 86.4143 259.572 83.719C255.626 81.0237 253.652 76.4514 253.652 70.0019C253.652 62.0123 256.733 56.6698 262.893 53.9746C269.15 51.183 275.6 49.7872 282.242 49.7872C290.905 49.7872 299.039 51.7606 306.644 55.7072L308.232 72.3122L293.793 73.9005L292.638 64.8039C289.461 63.745 286.044 63.2156 282.386 63.2156C279.98 63.2156 277.91 63.745 276.177 64.8039C274.541 65.7665 273.723 67.3066 273.723 69.4244C273.723 72.2159 275.6 74.093 279.354 75.0556C283.204 75.9219 287.632 76.7883 292.638 77.6546C297.74 78.521 302.168 80.3018 305.922 82.9971C309.772 85.5961 311.697 90.0241 311.697 96.281Z" fill="white" stroke="white"/>
</svg>
