<svg width="380" height="255" viewBox="0 0 380 255" fill="none" xmlns="http://www.w3.org/2000/svg">
<path fill-rule="evenodd" clip-rule="evenodd" d="M379.482 254.281H0.992188V147.191H379.482V254.281ZM111.067 222.128H104.969V200.794C104.969 189.658 97.1891 184.559 88.6731 184.559C81.2084 184.559 75.8465 188.409 73.2181 194.654C70.9051 187.785 64.5969 184.559 57.7631 184.559C51.1395 184.559 46.1981 187.577 43.3595 192.572V185.495H23.4887V195.694H29.7969V222.234H23.4887V232.432H52.296V222.234H43.2543V205.893C43.2543 199.337 45.8827 194.758 52.4011 194.758C57.7631 194.758 60.4966 197.88 60.4966 205.997V232.432H80.3673V222.234H74.0592V205.893C74.0592 199.337 76.6876 194.758 83.206 194.758C88.5679 194.758 91.3015 197.88 91.3015 205.997V232.327H111.067V222.128ZM142.403 184.559C125.371 184.559 116.961 195.902 116.961 209.64C116.961 224.626 127.054 233.472 141.667 233.472C156.807 233.472 167.741 224.002 167.741 209.015C167.741 195.902 159.435 184.559 142.403 184.559ZM130.943 208.696C130.943 216.813 134.728 223.057 142.088 223.057C149.132 223.057 153.758 217.542 153.758 208.487C153.758 199.017 148.606 194.75 142.193 194.75C135.254 194.75 130.943 199.849 130.943 208.696ZM210.213 214.948L220.937 215.988L217.993 232.431H176.675L175.308 225.355L201.381 195.693H186.558L184.455 202.979L174.677 201.939L176.359 185.494H217.888L218.94 192.571L192.656 222.233H208.005L210.213 214.948ZM245.122 232.435H230.929V215.575H245.122V232.435ZM230.929 202.354H245.122V185.494H230.929V202.354ZM267.198 232.325L287.699 160.828H274.347L253.845 232.325H267.198ZM315.247 160.828L294.745 232.325H281.393L301.895 160.828H315.247ZM360.458 224.418C361.088 224.418 361.718 224.315 362.455 224.106L362.77 231.287C360.247 232.641 357.198 233.472 354.255 233.472C347.946 233.472 344.477 229.83 343.845 224.106C341.113 228.893 336.276 233.472 328.6 233.472C321.767 233.472 313.988 229.83 313.988 220.047C313.988 208.495 325.237 205.789 336.066 205.789C338.695 205.789 341.428 205.893 343.845 206.205V204.644C343.845 199.857 343.741 194.133 336.066 194.133C333.227 194.133 331.02 194.341 328.812 195.486L327.235 200.794L316.406 199.649L318.087 188.826C326.394 185.495 330.599 184.559 338.379 184.559C348.576 184.559 357.198 189.762 357.198 200.482V220.775C357.198 223.481 358.25 224.418 360.458 224.418Z" fill="black"/>
<path fill-rule="evenodd" clip-rule="evenodd" d="M333.437 223.797C329.337 223.797 327.865 221.402 327.865 218.384C327.865 213.285 332.071 211.932 336.907 211.932C339.114 211.932 341.533 212.244 343.741 212.556C343.425 220.361 338.274 223.797 333.437 223.797Z" fill="black"/>
<path d="M83.0119 116.207H47.0587V102.201H55.7221V79.5318C55.7221 73.9487 54.7114 69.9539 52.6899 67.5474C50.7647 65.1409 47.9731 63.9376 44.3152 63.9376C40.0798 63.9376 36.7588 65.2371 34.3523 67.8362C32.042 70.4352 30.7907 73.8524 30.5981 78.0879V102.201H39.2616V116.207H3.3083V102.201H11.9717V31.0165H3.3083V16.8663H30.5981V61.0498C34.9299 53.5415 41.9087 49.7873 51.5348 49.7873C57.6954 49.7873 63.0379 51.6163 67.5621 55.2742C72.0864 58.9321 74.3485 64.6114 74.3485 72.3123V102.201H83.0119V116.207ZM167.344 116.207H139.332V106.244C135 113.752 128.022 117.507 118.396 117.507C112.235 117.507 106.892 115.678 102.368 112.02C97.8439 108.362 95.5818 102.682 95.5818 94.9816V65.0927H86.9184V51.0868H114.208V87.7621C114.208 93.4414 115.123 97.4844 116.952 99.8909C118.877 102.201 121.668 103.356 125.326 103.356C129.754 103.356 133.172 101.912 135.578 99.0245C138.081 96.1367 139.332 92.4307 139.332 87.9065V65.0927H128.792V51.0868H157.959V102.201H167.344V116.207ZM245.887 82.1308C245.887 91.7569 243.336 100.083 238.234 107.11C233.229 114.137 225.817 117.651 215.998 117.651C206.083 117.651 199.104 113.897 195.061 106.388C194.869 108.025 194.628 109.661 194.339 111.298C194.147 112.934 193.906 114.571 193.617 116.207H174.991C175.665 112.838 176.242 109.469 176.724 106.1C177.205 102.731 177.446 99.4096 177.446 96.1367V31.0165H168.782V16.8663H196.072V63.5044C197.805 59.7503 200.404 56.5256 203.869 53.8303C207.431 51.135 212.148 49.7873 218.019 49.7873C226.202 49.7873 232.892 52.627 238.09 58.3064C243.288 63.9857 245.887 71.9272 245.887 82.1308ZM226.539 83.7191C226.539 77.4622 225.191 72.6973 222.496 69.4245C219.8 66.1516 216.239 64.5152 211.811 64.5152C206.805 64.5152 202.907 66.3441 200.115 70.002C197.42 73.6599 196.072 77.8954 196.072 82.7084V84.2967C196.072 89.591 197.372 94.0671 199.971 97.725C202.666 101.287 206.468 103.067 211.377 103.067C215.613 103.067 219.175 101.527 222.062 98.447C225.046 95.2704 226.539 90.3611 226.539 83.7191ZM311.697 96.2811C311.697 103.501 308.81 108.891 303.034 112.453C297.355 115.918 289.943 117.651 280.798 117.651C276.081 117.651 271.316 117.17 266.503 116.207C261.786 115.148 257.262 113.512 252.93 111.298L255.529 93.1045L269.969 94.6928V102.779C271.701 103.356 273.53 103.741 275.455 103.934C277.381 104.03 278.824 104.078 279.787 104.078C283.349 104.078 286.429 103.501 289.028 102.346C291.627 101.19 292.927 99.4577 292.927 97.1475C292.927 94.3559 290.953 92.527 287.007 91.6606C283.06 90.7943 278.488 89.9279 273.289 89.0616C268.091 88.1952 263.519 86.4144 259.572 83.7191C255.626 81.0238 253.652 76.4515 253.652 70.002C253.652 62.0124 256.733 56.6699 262.893 53.9747C269.15 51.1831 275.6 49.7873 282.242 49.7873C290.905 49.7873 299.039 51.7607 306.644 55.7073L308.232 72.3123L293.793 73.9006L292.638 64.804C289.461 63.7451 286.044 63.2157 282.386 63.2157C279.98 63.2157 277.91 63.7451 276.177 64.804C274.541 65.7666 273.723 67.3067 273.723 69.4245C273.723 72.216 275.6 74.0931 279.354 75.0557C283.204 75.922 287.632 76.7884 292.638 77.6547C297.74 78.5211 302.168 80.3019 305.922 82.9972C309.772 85.5962 311.697 90.0242 311.697 96.2811Z" fill="black"/>
</svg>
